<svg xmlns="http://www.w3.org/2000/svg" width="840" height="875" viewBox="0 0 840 875" font-family="ui-monospace, SFMono-Regular, Menlo, Consolas, monospace"><defs><linearGradient id="bg" x1="0" y1="0" x2="0" y2="1"><stop offset="0" stop-color="#111722"/><stop offset="1" stop-color="#0d1117"/></linearGradient><radialGradient id="glow" cx="0.5" cy="0.44" r="0.5"><stop offset="0" stop-color="#1b2740"/><stop offset="1" stop-color="#0d1117" stop-opacity="0"/></radialGradient></defs><rect width="840" height="875" rx="12" fill="url(#bg)"/><rect x="0.5" y="0.5" width="839" height="874" rx="12" fill="none" stroke="#30363d" stroke-width="1"/><line x1="0" y1="30" x2="840" y2="30" stroke="#30363d"/><circle cx="20" cy="15.0" r="5" fill="#ff5f56"/><circle cx="36" cy="15.0" r="5" fill="#ffbd2e"/><circle cx="52" cy="15.0" r="5" fill="#27c93f"/><text x="420.0" y="19.0" fill="#7d8590" font-size="12" text-anchor="middle">shahmir@github: ~$ ./brand.sh</text><rect x="20" y="70" width="800" height="560" fill="url(#glow)"/><g transform="translate(114.0,248.0) scale(2.55)"><path d="M226.00,40.00 L225.89,42.42 L225.57,44.82 L225.04,47.18 L224.30,49.49 L223.34,51.71 L222.18,53.85 L220.81,55.87 L219.24,57.76 L217.47,59.52 L215.50,61.11 L213.34,62.53 L211.00,63.78 L208.46,64.83 L205.76,65.68 L202.87,66.32 L199.83,66.76 L196.62,66.97 L193.25,66.97 L189.74,66.76 L186.09,66.32 L182.31,65.68 L178.40,64.83 L174.37,63.78 L170.23,62.53 L165.99,61.11 L161.66,59.52 L157.25,57.76 L152.76,55.87 L148.20,53.85 L143.59,51.71 L138.93,49.49 L134.23,47.18 L129.50,44.82 L124.76,42.42 L120.00,40.00 L115.24,37.58 L110.50,35.18 L105.77,32.82 L101.07,30.51 L96.41,28.29 L91.80,26.15 L87.24,24.13 L82.75,22.24 L78.34,20.48 L74.01,18.89 L69.77,17.47 L65.63,16.22 L61.60,15.17 L57.69,14.32 L53.91,13.68 L50.26,13.24 L46.75,13.03 L43.38,13.03 L40.17,13.24 L37.13,13.68 L34.24,14.32 L31.54,15.17 L29.00,16.22 L26.66,17.47 L24.50,18.89 L22.53,20.48 L20.76,22.24 L19.19,24.13 L17.82,26.15 L16.66,28.29 L15.70,30.51 L14.96,32.82 L14.43,35.18 L14.11,37.58 L14.00,40.00 L14.11,42.42 L14.43,44.82 L14.96,47.18 L15.70,49.49 L16.66,51.71 L17.82,53.85 L19.19,55.87 L20.76,57.76 L22.53,59.52 L24.50,61.11 L26.66,62.53 L29.00,63.78 L31.54,64.83 L34.24,65.68 L37.13,66.32 L40.17,66.76 L43.38,66.97 L46.75,66.97 L50.26,66.76 L53.91,66.32 L57.69,65.68 L61.60,64.83 L65.63,63.78 L69.77,62.53 L74.01,61.11 L78.34,59.52 L82.75,57.76 L87.24,55.87 L91.80,53.85 L96.41,51.71 L101.07,49.49 L105.77,47.18 L110.50,44.82 L115.24,42.42 L120.00,40.00 L124.76,37.58 L129.50,35.18 L134.23,32.82 L138.93,30.51 L143.59,28.29 L148.20,26.15 L152.76,24.13 L157.25,22.24 L161.66,20.48 L165.99,18.89 L170.23,17.47 L174.37,16.22 L178.40,15.17 L182.31,14.32 L186.09,13.68 L189.74,13.24 L193.25,13.03 L196.62,13.03 L199.83,13.24 L202.87,13.68 L205.76,14.32 L208.46,15.17 L211.00,16.22 L213.34,17.47 L215.50,18.89 L217.47,20.48 L219.24,22.24 L220.81,24.13 L222.18,26.15 L223.34,28.29 L224.30,30.51 L225.04,32.82 L225.57,35.18 L225.89,37.58 L226.00,40.00 Z" fill="none" stroke="#8b98ad" stroke-width="2.6" stroke-linejoin="round" stroke-linecap="round" transform="rotate(3 120 40)" stroke-dasharray="508" stroke-dashoffset="508"><animate attributeName="stroke-dashoffset" from="508" to="0" begin="0.35s" dur="1.55s" fill="freeze" calcMode="spline" keyTimes="0;1" keySplines="0.4 0 0.2 1"/></path><path d="M226.00,40.00 L225.89,42.42 L225.57,44.82 L225.04,47.18 L224.30,49.49 L223.34,51.71 L222.18,53.85 L220.81,55.87 L219.24,57.76 L217.47,59.52 L215.50,61.11 L213.34,62.53 L211.00,63.78 L208.46,64.83 L205.76,65.68 L202.87,66.32 L199.83,66.76 L196.62,66.97 L193.25,66.97 L189.74,66.76 L186.09,66.32 L182.31,65.68 L178.40,64.83 L174.37,63.78 L170.23,62.53 L165.99,61.11 L161.66,59.52 L157.25,57.76 L152.76,55.87 L148.20,53.85 L143.59,51.71 L138.93,49.49 L134.23,47.18 L129.50,44.82 L124.76,42.42 L120.00,40.00 L115.24,37.58 L110.50,35.18 L105.77,32.82 L101.07,30.51 L96.41,28.29 L91.80,26.15 L87.24,24.13 L82.75,22.24 L78.34,20.48 L74.01,18.89 L69.77,17.47 L65.63,16.22 L61.60,15.17 L57.69,14.32 L53.91,13.68 L50.26,13.24 L46.75,13.03 L43.38,13.03 L40.17,13.24 L37.13,13.68 L34.24,14.32 L31.54,15.17 L29.00,16.22 L26.66,17.47 L24.50,18.89 L22.53,20.48 L20.76,22.24 L19.19,24.13 L17.82,26.15 L16.66,28.29 L15.70,30.51 L14.96,32.82 L14.43,35.18 L14.11,37.58 L14.00,40.00 L14.11,42.42 L14.43,44.82 L14.96,47.18 L15.70,49.49 L16.66,51.71 L17.82,53.85 L19.19,55.87 L20.76,57.76 L22.53,59.52 L24.50,61.11 L26.66,62.53 L29.00,63.78 L31.54,64.83 L34.24,65.68 L37.13,66.32 L40.17,66.76 L43.38,66.97 L46.75,66.97 L50.26,66.76 L53.91,66.32 L57.69,65.68 L61.60,64.83 L65.63,63.78 L69.77,62.53 L74.01,61.11 L78.34,59.52 L82.75,57.76 L87.24,55.87 L91.80,53.85 L96.41,51.71 L101.07,49.49 L105.77,47.18 L110.50,44.82 L115.24,42.42 L120.00,40.00 L124.76,37.58 L129.50,35.18 L134.23,32.82 L138.93,30.51 L143.59,28.29 L148.20,26.15 L152.76,24.13 L157.25,22.24 L161.66,20.48 L165.99,18.89 L170.23,17.47 L174.37,16.22 L178.40,15.17 L182.31,14.32 L186.09,13.68 L189.74,13.24 L193.25,13.03 L196.62,13.03 L199.83,13.24 L202.87,13.68 L205.76,14.32 L208.46,15.17 L211.00,16.22 L213.34,17.47 L215.50,18.89 L217.47,20.48 L219.24,22.24 L220.81,24.13 L222.18,26.15 L223.34,28.29 L224.30,30.51 L225.04,32.82 L225.57,35.18 L225.89,37.58 L226.00,40.00 Z" fill="none" stroke="#eef4ff" stroke-width="2.6" stroke-linejoin="round" stroke-linecap="round" stroke-dasharray="508" stroke-dashoffset="508"><animate attributeName="stroke-dashoffset" from="508" to="0" begin="0.15s" dur="1.55s" fill="freeze" calcMode="spline" keyTimes="0;1" keySplines="0.4 0 0.2 1"/></path></g><g opacity="0" transform="translate(0,6)"><text x="420.0" y="600" text-anchor="middle" fill="#c9d1d9" font-size="46" font-weight="300" letter-spacing="18">INFINITY SELL</text><animate attributeName="opacity" from="0" to="1" begin="1.35s" dur="0.5s" fill="freeze"/><animateTransform attributeName="transform" type="translate" from="0 6" to="0 0" begin="1.35s" dur="0.5s" fill="freeze" calcMode="spline" keySplines="0.2 0.8 0.2 1"/></g><g opacity="0" transform="translate(0,6)"><text x="420.0" y="640" text-anchor="middle" fill="#7d8590" font-size="17" font-weight="400" letter-spacing="9">SYSTEMS THAT SELL.</text><animate attributeName="opacity" from="0" to="1" begin="1.70s" dur="0.5s" fill="freeze"/><animateTransform attributeName="transform" type="translate" from="0 6" to="0 0" begin="1.70s" dur="0.5s" fill="freeze" calcMode="spline" keySplines="0.2 0.8 0.2 1"/></g><line x1="0" y1="835.0" x2="840" y2="835.0" stroke="#30363d"/><text x="20" y="855.0" font-size="13"><tspan fill="#7d8590">shahmir@github:~$ whoami </tspan><tspan fill="#c9d1d9">Shahmir Gill</tspan><tspan fill="#7d8590"> — Founder, </tspan><tspan fill="#22d3ee">InfinitySell.io</tspan></text><rect x="525" y="843.0" width="8" height="14" fill="#c9d1d9"><animate attributeName="opacity" values="1;1;0;0" keyTimes="0;0.5;0.51;1" dur="1s" repeatCount="indefinite"/></rect></svg>